<svg width="287" height="190" viewBox="0 0 287 190" fill="none" xmlns="http://www.w3.org/2000/svg">
<g clip-path="url(#clip0_12_2331)">
<path d="M275.781 127.152C273.709 129.415 271.139 131.1 268.35 132.408H268.347C268.084 132.533 267.822 132.654 267.556 132.768H267.553L267.549 132.771L267.546 132.768H267.543L267.543 132.769L267.542 132.77L267.541 132.771L267.539 132.771H267.536L267.533 132.768C267.529 132.771 267.529 132.771 267.526 132.768L267.523 132.771L267.519 132.768H267.516C267.512 132.771 267.512 132.771 267.509 132.768H267.506C265.639 133.575 263.722 134.26 261.766 134.819C250.268 138.08 238.182 138.711 226.406 136.666C226.181 136.625 225.959 136.585 225.733 136.544V109.269C225.955 109.174 226.181 109.08 226.406 108.989C227.876 108.381 229.364 107.821 230.87 107.311C233.037 106.572 235.234 105.937 237.461 105.408C244.726 103.65 252.223 103.044 259.677 103.612C261.033 103.713 262.386 103.859 263.734 104.049C266.557 104.443 269.517 105.129 272.121 106.319H272.125C272.505 106.498 272.878 106.683 273.248 106.881C275.563 108.135 277.514 109.86 278.705 112.224C279.133 113.074 279.441 113.978 279.62 114.911V114.918C279.687 115.241 279.734 115.567 279.771 115.89C280.195 119.872 278.543 124.132 275.781 127.152Z" fill="#F2F2F2"/>
<path d="M279.771 115.89C279.738 115.898 279.704 115.903 279.67 115.903C273.908 116.155 268.153 116.53 262.406 117.026H262.396C262.372 117.03 262.352 117.03 262.328 117.033C256.428 117.544 250.539 118.184 244.663 118.953C244.414 118.987 244.169 119.021 243.923 119.051C239.859 119.592 235.803 120.193 231.755 120.853C229.969 121.146 228.186 121.451 226.406 121.768C226.181 121.808 225.959 121.845 225.733 121.889V120.87C225.959 120.826 226.184 120.789 226.406 120.749C232.334 119.7 238.282 118.784 244.249 118.002C245.75 117.8 247.252 117.609 248.757 117.43C253.104 116.905 257.457 116.453 261.817 116.071C262.137 116.044 262.453 116.018 262.772 115.991C268.353 115.517 273.942 115.157 279.539 114.911C279.566 114.91 279.593 114.912 279.62 114.918C280.158 114.965 280.273 115.772 279.771 115.89Z" fill="white"/>
<path d="M267.804 131.777C260.625 131.83 253.552 128.787 248.474 123.75C247.041 122.324 245.779 120.736 244.712 119.019C244.369 118.47 243.569 119.075 243.908 119.619C247.852 125.941 254.421 130.445 261.663 132.101C263.72 132.567 265.824 132.792 267.933 132.772C268.577 132.767 268.443 131.772 267.804 131.777Z" fill="white"/>
<path d="M237.461 105.408C237.43 105.502 237.375 105.587 237.301 105.654C237.227 105.721 237.137 105.767 237.04 105.788C235.395 106.219 233.805 106.84 232.304 107.638C230.11 108.795 228.119 110.3 226.406 112.093C226.315 112.184 226.228 112.275 226.144 112.369C226.002 112.517 225.868 112.668 225.733 112.823V111.357C225.949 111.128 226.174 110.903 226.406 110.688C227.758 109.393 229.257 108.26 230.87 107.311C233.037 106.571 235.234 105.937 237.461 105.408Z" fill="white"/>
<path d="M272.716 106.054C268.15 108.016 264.329 111.384 261.809 115.667C261.758 115.79 261.758 115.927 261.808 116.05C261.857 116.173 261.954 116.272 262.076 116.324C262.199 116.373 262.336 116.372 262.458 116.322C262.58 116.273 262.679 116.178 262.733 116.058C265.138 112.012 268.766 108.835 273.093 106.984C273.687 106.73 273.311 105.8 272.716 106.054Z" fill="white"/>
<path d="M286.483 77.4931C285.702 80.4592 284.205 83.1461 282.345 85.5976L282.342 85.6009C282.17 85.8296 281.992 86.0616 281.807 86.2836V86.2869C280.515 87.8775 279.12 89.3817 277.632 90.7898C272.281 95.8873 266.236 100.204 259.677 103.612C249.36 109 237.827 112.184 226.406 112.366C226.319 112.369 226.231 112.369 226.144 112.369C226.006 112.372 225.868 112.372 225.733 112.372V97.0884C225.952 96.6714 226.177 96.2544 226.406 95.8407C229.374 90.5021 232.994 85.5523 237.182 81.1048C237.282 80.9938 237.387 80.8829 237.491 80.7753C239.065 79.114 240.716 77.5324 242.443 76.0303C249.087 70.1912 256.764 65.646 265.08 62.6294C267.761 61.6676 270.702 60.8976 273.561 60.7462C273.982 60.7227 274.399 60.7126 274.819 60.716C277.454 60.753 279.98 61.3751 282.136 62.9153C282.909 63.4697 283.601 64.127 284.195 64.8691C284.404 65.128 284.596 65.3937 284.781 65.6661V65.6694C287.008 68.9986 287.526 73.5351 286.483 77.4931Z" fill="#F2F2F2"/>
<path d="M284.781 65.6659V65.6693C284.756 65.691 284.729 65.7101 284.7 65.7264C279.721 68.6218 274.805 71.6226 269.951 74.7287C269.945 74.7321 269.941 74.7354 269.935 74.7388C269.915 74.7524 269.895 74.7647 269.874 74.7758C264.885 77.9705 259.967 81.2728 255.119 84.6827C254.917 84.8239 254.712 84.9685 254.507 85.1131C251.159 87.4772 247.847 89.8917 244.569 92.3567C238.379 97.0176 232.325 101.851 226.406 106.857C226.181 107.046 225.959 107.237 225.733 107.429V106.121C225.955 105.929 226.181 105.737 226.406 105.549C228.674 103.636 230.961 101.749 233.269 99.8894C233.959 99.3346 234.652 98.7797 235.345 98.2315C241.501 93.3319 247.795 88.615 254.228 84.0808H254.231C255.496 83.1896 256.763 82.3063 258.032 81.4308C261.639 78.9491 265.285 76.5267 268.973 74.1638C269.238 73.9923 269.507 73.8208 269.776 73.6493C274.496 70.6362 279.278 67.7217 284.121 64.9059C284.145 64.8915 284.17 64.8792 284.195 64.8689C284.7 64.6671 285.174 65.333 284.781 65.6659Z" fill="white"/>
<path d="M281.567 85.2926C275.234 88.6728 267.557 89.2623 260.719 87.1599C258.788 86.5618 256.932 85.742 255.189 84.7169C254.631 84.3899 254.203 85.2976 254.756 85.6218C261.186 89.3893 269.097 90.3273 276.28 88.4308C278.318 87.8883 280.286 87.1106 282.144 86.1134C282.711 85.8103 282.131 84.9915 281.567 85.2926Z" fill="white"/>
<path d="M234.184 97.5968C233.871 95.8364 233.763 94.0455 233.864 92.2603C234.091 88.1888 235.338 84.2396 237.491 80.776C239.067 79.1153 240.718 77.5334 242.444 76.0303C242.46 76.1286 242.451 76.2294 242.416 76.3229C242.381 76.4163 242.323 76.4992 242.247 76.5632C240.991 77.709 239.872 78.9963 238.912 80.3994C235.485 85.4 234.147 91.5412 235.184 97.5136C235.201 97.5814 235.2 97.6523 235.181 97.7196C235.163 97.7868 235.128 97.8483 235.079 97.8979C235.007 97.9606 234.919 98.0033 234.826 98.0219C234.732 98.0404 234.635 98.0342 234.545 98.0037C234.455 97.9733 234.374 97.9197 234.311 97.8483C234.247 97.7769 234.204 97.6902 234.184 97.5968Z" fill="white"/>
<path d="M273.964 60.2325C270.832 64.0904 269.013 68.847 268.772 73.8099C268.784 73.9421 268.847 74.0643 268.949 74.1501C269.05 74.2358 269.181 74.2781 269.314 74.2679C269.445 74.2538 269.566 74.1897 269.651 74.089C269.737 73.9882 269.78 73.8584 269.772 73.7266C270.021 69.0276 271.758 64.5293 274.73 60.8802C275.138 60.3799 274.373 59.7311 273.964 60.2325Z" fill="white"/>
<path d="M239.126 71.2818V71.2852C239.102 71.5744 239.075 71.8603 239.045 72.1461V72.1528C238.811 74.1875 238.446 76.2049 237.952 78.1925C237.716 79.1677 237.461 80.1362 237.182 81.1047C237.148 81.2291 237.111 81.3535 237.074 81.4746V81.4779C236.252 84.2947 235.27 87.0623 234.134 89.7673C232.042 94.7476 229.453 99.5043 226.406 103.965C226.187 104.291 225.962 104.618 225.733 104.94V52.2785C225.959 52.265 226.181 52.265 226.406 52.2718C226.514 52.2718 226.621 52.2751 226.729 52.2818C227.678 52.3317 228.616 52.5139 229.515 52.8233C229.831 52.9275 230.137 53.0452 230.44 53.1764C234.11 54.7838 236.993 58.3282 238.244 62.2257C239.183 65.1447 239.371 68.2149 239.126 71.2818Z" fill="#F2F2F2"/>
<path d="M230.44 53.1764C230.432 53.2094 230.419 53.2411 230.403 53.2706C229.04 55.9172 227.708 58.5772 226.406 61.2506C226.181 61.7113 225.955 62.1754 225.733 62.6361V60.3494C225.955 59.892 226.18 59.4347 226.406 58.9773C227.412 56.9395 228.435 54.9105 229.474 52.8906C229.486 52.867 229.499 52.8445 229.515 52.8233C229.824 52.3794 230.591 52.6821 230.44 53.1764Z" fill="white"/>
<path d="M239.234 71.8234C239.173 71.931 239.112 72.0386 239.045 72.1463C238.057 73.8671 236.882 75.4731 235.54 76.9349C232.962 79.7301 229.859 81.9894 226.406 83.5833C226.184 83.6909 225.959 83.7918 225.733 83.8859V82.793C225.959 82.6921 226.184 82.5879 226.406 82.4803C231.404 80.0975 235.555 76.2471 238.305 71.4434C238.345 71.3749 238.399 71.3156 238.463 71.2697C238.528 71.2237 238.602 71.1922 238.679 71.1772C238.757 71.1622 238.837 71.1641 238.914 71.1828C238.991 71.2015 239.064 71.2364 239.126 71.2854C239.168 71.3136 239.205 71.3499 239.233 71.3923C239.262 71.4346 239.281 71.4821 239.291 71.5321C239.301 71.5821 239.301 71.6335 239.291 71.6835C239.282 71.7335 239.262 71.7811 239.234 71.8234Z" fill="white"/>
<path d="M226.406 11.0973V36.6549H225.733V36.3825H0.672826V36.6549H0V11.0973C0.00288924 8.15503 1.17345 5.33406 3.25478 3.25353C5.33612 1.173 8.15819 0.00288813 11.1016 0H215.304C218.248 0.00288813 221.07 1.173 223.151 3.25353C225.233 5.33406 226.403 8.15503 226.406 11.0973Z" fill="#EBEBFF"/>
<path d="M215.304 0H11.1016C8.15819 0.00288813 5.33612 1.173 3.25478 3.25353C1.17345 5.33406 0.00288924 8.15503 0 11.0973V157.044C0.00288924 159.987 1.17345 162.808 3.25478 164.888C5.33612 166.969 8.15819 168.139 11.1016 168.142H215.304C218.248 168.139 221.07 166.969 223.151 164.888C225.233 162.808 226.403 159.987 226.406 157.044V11.0973C226.403 8.15503 225.233 5.33406 223.151 3.25353C221.07 1.173 218.248 0.00288813 215.304 0ZM225.733 157.044C225.73 159.808 224.63 162.458 222.675 164.412C220.72 166.366 218.069 167.465 215.304 167.469H11.1016C8.33683 167.465 5.68626 166.366 3.73125 164.412C1.77623 162.458 0.676354 159.808 0.672826 157.044V11.0973C0.676354 8.3336 1.77623 5.68407 3.73125 3.72981C5.68626 1.77555 8.33683 0.676093 11.1016 0.672566H215.304C218.069 0.676094 220.72 1.77555 222.675 3.72981C224.63 5.68407 225.73 8.3336 225.733 11.0973V157.044Z" fill="#3F3D56" fill-opacity="0.25"/>
<path d="M45.7522 25.0531C49.4681 25.0531 52.4805 22.042 52.4805 18.3275C52.4805 14.613 49.4681 11.6018 45.7522 11.6018C42.0363 11.6018 39.0239 14.613 39.0239 18.3275C39.0239 22.042 42.0363 25.0531 45.7522 25.0531Z" fill="white"/>
<path d="M180.654 25.0531C184.37 25.0531 187.382 22.042 187.382 18.3275C187.382 14.613 184.37 11.6018 180.654 11.6018C176.938 11.6018 173.926 14.613 173.926 18.3275C173.926 22.042 176.938 25.0531 180.654 25.0531Z" fill="white"/>
<path d="M65.1918 93.3194H25.1666C23.4709 93.3174 21.8453 92.6432 20.6462 91.4447C19.4472 90.2461 18.7728 88.6211 18.7709 86.9261V68.016C18.7728 66.321 19.4472 64.696 20.6462 63.4975C21.8453 62.2989 23.4709 61.6247 25.1666 61.6228H65.1918C66.8874 61.6247 68.5131 62.2989 69.7121 63.4975C70.9111 64.696 71.5855 66.321 71.5875 68.016V86.9261C71.5855 88.6211 70.9111 90.2461 69.7121 91.4447C68.5131 92.6432 66.8874 93.3174 65.1918 93.3194Z" fill="#EBEBFF"/>
<path d="M133.281 93.3194H93.2561C91.5604 93.3174 89.9347 92.6432 88.7357 91.4447C87.5367 90.2461 86.8623 88.6211 86.8604 86.9261V68.016C86.8623 66.321 87.5367 64.696 88.7357 63.4975C89.9347 62.2989 91.5604 61.6247 93.2561 61.6228H133.281C134.977 61.6247 136.603 62.2989 137.802 63.4975C139.001 64.696 139.675 66.321 139.677 68.016V86.9261C139.675 88.6211 139.001 90.2461 137.802 91.4447C136.603 92.6432 134.977 93.3174 133.281 93.3194Z" fill="#EBEBFF"/>
<path d="M133.281 142.178H93.2561C91.5091 142.176 89.8342 141.482 88.5988 140.247C87.3635 139.012 86.6686 137.338 86.6666 135.591V116.681C86.6686 114.935 87.3635 113.26 88.5988 112.025C89.8342 110.791 91.5091 110.096 93.2561 110.094H133.281C135.028 110.096 136.703 110.791 137.939 112.025C139.174 113.26 139.869 114.935 139.871 116.681V135.591C139.869 137.338 139.174 139.012 137.939 140.247C136.703 141.482 135.028 142.176 133.281 142.178Z" fill="#F2F2F2"/>
<path d="M65.0605 142.178H25.0353C23.2883 142.176 21.6133 141.482 20.378 140.247C19.1426 139.012 18.4478 137.338 18.4458 135.591V116.681C18.4478 114.935 19.1426 113.26 20.378 112.025C21.6133 110.791 23.2883 110.096 25.0353 110.094H65.0605C66.8075 110.096 68.4824 110.791 69.7178 112.025C70.9531 113.26 71.648 114.935 71.65 116.681V135.591C71.648 137.338 70.9531 139.012 69.7178 140.247C68.4824 141.482 66.8075 142.176 65.0605 142.178Z" fill="#F2F2F2"/>
<path d="M201.371 142.178H161.346C159.599 142.176 157.924 141.482 156.688 140.247C155.453 139.012 154.758 137.338 154.756 135.591V116.681C154.758 114.935 155.453 113.26 156.688 112.025C157.924 110.791 159.599 110.096 161.346 110.094H201.371C203.118 110.096 204.793 110.791 206.028 112.025C207.263 113.26 207.958 114.935 207.96 116.681V135.591C207.958 137.338 207.263 139.012 206.028 140.247C204.793 141.482 203.118 142.176 201.371 142.178Z" fill="#F2F2F2"/>
<path d="M201.371 93.3572H161.346C159.599 93.3552 157.924 92.6606 156.688 91.4257C155.453 90.1908 154.758 88.5166 154.756 86.7702V67.8599C154.758 66.1135 155.453 64.4393 156.688 63.2044C157.924 61.9695 159.599 61.2749 161.346 61.2729H201.371C203.118 61.2749 204.793 61.9695 206.028 63.2044C207.263 64.4393 207.958 66.1135 207.96 67.8599V86.7702C207.958 88.5166 207.263 90.1908 206.028 91.4257C204.793 92.6606 203.118 93.3552 201.371 93.3572Z" fill="#F2F2F2"/>
<path d="M45.1791 88.3201C51.1732 88.3201 56.0324 83.4627 56.0324 77.4709C56.0324 71.4791 51.1732 66.6218 45.1791 66.6218C39.185 66.6218 34.3258 71.4791 34.3258 77.4709C34.3258 83.4627 39.185 88.3201 45.1791 88.3201Z" fill="white"/>
<path d="M44.1033 81.6095C43.8591 81.61 43.6214 81.5311 43.426 81.3846L43.4139 81.3756L40.8633 79.4235C40.745 79.3331 40.6457 79.2202 40.5711 79.0914C40.4965 78.9626 40.4479 78.8204 40.4283 78.6729C40.4087 78.5253 40.4184 78.3753 40.4568 78.2315C40.4952 78.0877 40.5616 77.9529 40.6521 77.8347C40.7427 77.7166 40.8557 77.6174 40.9846 77.5429C41.1135 77.4685 41.2559 77.4201 41.4035 77.4006C41.5511 77.3812 41.7011 77.391 41.845 77.4295C41.9888 77.4681 42.1236 77.5345 42.2417 77.6252L43.8938 78.8915L47.798 73.8019C47.8885 73.6838 48.0014 73.5848 48.1303 73.5104C48.2591 73.4359 48.4014 73.3876 48.5489 73.3681C48.6964 73.3487 48.8463 73.3584 48.9901 73.3969C49.1339 73.4353 49.2686 73.5017 49.3867 73.5923L49.3624 73.6252L49.3873 73.5927C49.6255 73.7757 49.7814 74.0457 49.8207 74.3435C49.86 74.6412 49.7796 74.9424 49.597 75.1809L45.0048 81.1675C44.8986 81.3054 44.7621 81.4171 44.6057 81.4937C44.4494 81.5704 44.2775 81.61 44.1033 81.6095Z" fill="#6C63FF"/>
<path d="M113.462 88.1643C119.457 88.1643 124.316 83.307 124.316 77.3152C124.316 71.3234 119.457 66.4661 113.462 66.4661C107.468 66.4661 102.609 71.3234 102.609 77.3152C102.609 83.307 107.468 88.1643 113.462 88.1643Z" fill="white"/>
<path d="M112.387 81.4538C112.142 81.4542 111.905 81.3753 111.709 81.2289L111.697 81.2198L109.147 79.2677C108.908 79.085 108.752 78.815 108.712 78.5172C108.673 78.2194 108.754 77.9181 108.936 77.6796C109.119 77.4412 109.389 77.2851 109.687 77.2456C109.985 77.2062 110.286 77.2867 110.525 77.4694L112.177 78.7357L116.081 73.6461C116.172 73.5281 116.285 73.429 116.414 73.3546C116.542 73.2802 116.685 73.2318 116.832 73.2124C116.98 73.1929 117.13 73.2027 117.273 73.2411C117.417 73.2796 117.552 73.346 117.67 73.4365L117.646 73.4694L117.671 73.437C117.909 73.62 118.065 73.89 118.104 74.1877C118.143 74.4854 118.063 74.7866 117.88 75.0251L113.288 81.0117C113.182 81.1497 113.045 81.2613 112.889 81.338C112.733 81.4146 112.561 81.4542 112.387 81.4538Z" fill="#6C63FF"/>
<path d="M186.814 128.511C187.171 128.121 187.438 127.658 187.596 127.154C187.754 126.65 187.8 126.117 187.73 125.594C187.66 125.07 187.476 124.569 187.191 124.124C186.906 123.679 186.526 123.302 186.08 123.02L180.021 90.6787L172.652 93.4102L180.925 124.342C180.5 125.123 180.377 126.033 180.578 126.899C180.779 127.765 181.291 128.527 182.017 129.041C182.743 129.555 183.633 129.785 184.517 129.687C185.401 129.589 186.218 129.171 186.814 128.511Z" fill="#A0616A"/>
<path d="M128.014 79.1611C128.033 79.3619 128.035 79.5639 128.022 79.7651L142.35 90.7883L146.413 89.1205L149.732 94.9211L142.826 98.5724C142.268 98.8673 141.63 98.9734 141.006 98.8748C140.383 98.7761 139.809 98.4779 139.369 98.0251L125.048 83.2659C124.29 83.4368 123.497 83.3729 122.776 83.0828C122.056 82.7927 121.44 82.29 121.012 81.6417C120.584 80.9934 120.363 80.2302 120.38 79.4535C120.396 78.6769 120.649 77.9236 121.104 77.2939C121.559 76.6642 122.195 76.188 122.927 75.9285C123.66 75.669 124.454 75.6386 125.204 75.8413C125.954 76.044 126.625 76.4702 127.127 77.0632C127.629 77.6562 127.939 78.388 128.014 79.1611Z" fill="#A0616A"/>
<path d="M161.488 185.914H157.364L155.401 173.375L161.489 173.375L161.488 185.914Z" fill="#A0616A"/>
<path d="M162.54 189.91L149.241 189.91V189.742C149.241 189.062 149.375 188.389 149.635 187.762C149.895 187.134 150.276 186.564 150.757 186.083C151.238 185.603 151.808 185.221 152.436 184.961C153.064 184.701 153.738 184.568 154.417 184.568L162.54 184.568L162.54 189.91Z" fill="#2F2E41"/>
<path d="M176.963 185.914H172.839L170.876 173.375L176.964 173.375L176.963 185.914Z" fill="#A0616A"/>
<path d="M178.015 189.91L164.716 189.91V189.742C164.716 189.062 164.85 188.389 165.11 187.762C165.37 187.134 165.751 186.564 166.232 186.083C166.713 185.603 167.283 185.221 167.911 184.961C168.539 184.701 169.213 184.568 169.892 184.568L178.015 184.568L178.015 189.91Z" fill="#2F2E41"/>
<path d="M156.507 183.435C156.131 183.436 155.768 183.296 155.489 183.042C155.211 182.789 155.037 182.441 155.002 182.066L151.408 133.746L151.578 133.732L176.311 131.7L176.318 131.875L178.284 181.931C178.291 182.135 178.258 182.337 178.185 182.528C178.113 182.718 178.003 182.891 177.861 183.038C177.72 183.184 177.551 183.301 177.363 183.381C177.176 183.46 176.975 183.501 176.771 183.501H171.921C171.559 183.503 171.209 183.374 170.934 183.138C170.659 182.903 170.479 182.576 170.425 182.218L163.839 141.782C163.833 141.74 163.811 141.702 163.778 141.676C163.745 141.649 163.703 141.636 163.661 141.64C163.619 141.643 163.579 141.661 163.551 141.692C163.522 141.723 163.505 141.764 163.505 141.806L163.206 181.731C163.203 182.116 163.053 182.486 162.787 182.765C162.52 183.044 162.157 183.211 161.772 183.231L156.588 183.433C156.561 183.435 156.534 183.435 156.507 183.435Z" fill="#2F2E41"/>
<path d="M160.729 72.6793C165.292 72.6793 168.991 68.9814 168.991 64.4199C168.991 59.8583 165.292 56.1604 160.729 56.1604C156.166 56.1604 152.466 59.8583 152.466 64.4199C152.466 68.9814 156.166 72.6793 160.729 72.6793Z" fill="#A0616A"/>
<path d="M162.328 136.828C158.717 136.817 155.123 136.326 151.641 135.367C151.306 135.27 151.015 135.06 150.816 134.773C150.618 134.486 150.525 134.139 150.552 133.791C151.665 117.08 151.926 104.112 149.587 95.1394C148.59 91.3152 149.043 87.2875 150.829 84.0892C153.517 79.276 158.457 76.3465 163.727 76.4476C163.979 76.4524 164.233 76.4613 164.49 76.4745C172.488 76.8862 178.72 84.1184 178.382 92.5966L176.773 133.007C176.768 133.302 176.674 133.589 176.506 133.831C176.337 134.073 176.101 134.259 175.826 134.367C171.511 135.99 166.939 136.823 162.328 136.828Z" fill="#3F3D56"/>
<path d="M150.947 98.2421L144.758 90.6607C144.582 90.445 144.454 90.1939 144.384 89.9245C144.314 89.6551 144.302 89.3737 144.351 89.0995C144.399 88.8253 144.506 88.5647 144.664 88.3356C144.822 88.1064 145.028 87.914 145.267 87.7714L153.651 82.7776C154.76 81.883 156.179 81.4647 157.596 81.6142C159.014 81.7638 160.314 82.4691 161.212 83.5755C162.11 84.6819 162.532 86.099 162.386 87.5162C162.24 88.9333 161.538 90.2348 160.433 91.1351L153.881 98.3225C153.693 98.5283 153.463 98.6912 153.207 98.8001C152.951 98.909 152.674 98.9615 152.396 98.9538C152.117 98.9462 151.844 98.8787 151.594 98.7558C151.344 98.633 151.123 98.4578 150.947 98.2421Z" fill="#3F3D56"/>
<path d="M170.417 97.2908C170.163 97.1771 169.936 97.0099 169.752 96.8006C169.569 96.5913 169.432 96.3449 169.353 96.0781L166.566 86.7613C165.961 85.4712 165.893 83.9939 166.376 82.6536C166.86 81.3132 167.855 80.2191 169.144 79.6113C170.433 79.0035 171.911 78.9316 173.253 79.4114C174.595 79.8911 175.692 80.8834 176.303 82.1705L181.691 90.3047C181.845 90.5368 181.947 90.7994 181.99 91.0744C182.033 91.3495 182.016 91.6306 181.941 91.8986C181.866 92.1667 181.733 92.4153 181.553 92.6276C181.373 92.8399 181.149 93.0109 180.897 93.129L172.031 97.2774C171.779 97.3956 171.504 97.4579 171.225 97.4602C170.947 97.4626 170.671 97.4048 170.417 97.2908Z" fill="#3F3D56"/>
<path d="M164.812 71.1969L158.687 69.7955C158.055 69.651 157.296 69.3752 157.209 68.7333C157.091 67.8707 158.333 67.2698 158.218 66.4067C158.107 65.5708 156.976 65.4631 156.169 65.2163C155.418 64.9529 154.799 64.4076 154.443 63.6958C154.087 62.9841 154.021 62.1617 154.261 61.4028C153.388 62.6322 151.394 62.7375 150.262 61.7415C149.13 60.7454 148.913 58.9382 149.593 57.5925C149.96 56.9315 150.478 56.3665 151.105 55.9434C151.732 55.5203 152.45 55.2511 153.201 55.1576C154.71 54.9866 156.236 55.2709 157.582 55.9741C157.672 55.0212 158.862 54.635 159.819 54.6265C161.808 54.6496 163.74 55.292 165.346 56.464C166.953 57.6361 168.154 59.2797 168.782 61.1659C169.957 64.9498 169.171 69.0976 165.884 71.3116L164.812 71.1969Z" fill="#2F2E41"/>
<path d="M226.503 190H98.3293C98.2401 190 98.1545 189.965 98.0915 189.901C98.0284 189.838 97.9929 189.753 97.9929 189.664C97.9929 189.574 98.0284 189.489 98.0915 189.426C98.1545 189.363 98.2401 189.327 98.3293 189.327H226.503C226.592 189.327 226.678 189.363 226.741 189.426C226.804 189.489 226.839 189.574 226.839 189.664C226.839 189.753 226.804 189.838 226.741 189.901C226.678 189.965 226.592 190 226.503 190Z" fill="#3F3D56"/>
</g>
<defs>
<clipPath id="clip0_12_2331">
<rect width="287" height="190" fill="white"/>
</clipPath>
</defs>
</svg>
