<svg width="394" height="282" viewBox="0 0 394 282" fill="none" xmlns="http://www.w3.org/2000/svg">
<g clip-path="url(#clip0_12_2446)">
<path d="M387.997 280.68H327.365V279.699H388.024L387.997 280.68Z" fill="#CBCBCB"/>
<path d="M348.73 251.87L346.041 257.698L341.111 257.249L337.974 246.938L342.903 244.249L348.73 251.87Z" fill="#FFB9B9"/>
<path d="M365.657 265.292L365.763 269.353L358.142 269.802V264.87L365.657 265.292Z" fill="#FFB9B9"/>
<path d="M363.074 191.348L361.281 227.212L365.763 266.215L352.317 268.008L343.802 218.693L341.111 185.072L363.074 191.348Z" fill="#090814"/>
<path d="M384.139 178.348C384.139 178.348 389.517 213.764 378.312 225.42C367.107 237.076 351.869 257.699 351.869 257.699L341.112 244.249L368.452 215.11L363.074 195.384L341.112 185.073L344.698 160.415L376.968 159.967L384.139 178.348Z" fill="#090814"/>
<path d="M357.695 96.308C363.141 96.308 367.556 91.8924 367.556 86.4453C367.556 80.9983 363.141 76.5826 357.695 76.5826C352.25 76.5826 347.835 80.9983 347.835 86.4453C347.835 91.8924 352.25 96.308 357.695 96.308Z" fill="#FFB9B9"/>
<path d="M366.211 88.6862C366.211 88.6862 366.659 102.584 368.9 104.377C371.141 106.17 360.833 113.791 360.833 113.791L354.11 103.032V93.1693L366.211 88.6862Z" fill="#FFB9B9"/>
<path d="M361.729 107.516L367.171 99.2971L370.245 103.481L374.727 116.033L371.141 164.898L350.075 165.347L347.386 109.309L354.109 101.239L361.729 107.516Z" fill="#F2F2F2"/>
<path d="M338.871 110.653L335.285 110.204C335.285 110.204 334.389 110.653 333.941 113.791C333.492 116.928 328.116 144.724 328.116 144.724L335.287 178.793L343.355 168.034L338.423 149.207L343.353 130.378L338.871 110.653Z" fill="#090814"/>
<path d="M384.587 110.206H387.277L394 146.518L387.725 174.762L381.45 164.451L383.243 153.243L382.349 143.381L379.212 137.552L384.587 110.206Z" fill="#090814"/>
<path d="M344.697 255.905C344.697 255.905 347.386 255.009 347.386 256.801C347.386 258.594 345.594 263.974 345.594 263.974C345.594 263.974 348.283 280.562 344.249 279.665C340.215 278.769 337.078 271.148 336.627 268.906C336.177 266.664 333.938 255.009 333.938 255.009C333.938 255.009 330.353 246.491 332.594 246.042C334.835 245.593 341.109 243.801 341.109 243.801C341.109 243.801 337.526 255.008 344.697 255.905Z" fill="#090814"/>
<path d="M357.696 269.802C357.696 269.802 364.867 265.319 366.211 268.906C367.103 271.522 367.704 274.228 368.004 276.975C368.004 276.975 369.797 282.803 362.626 281.907C355.454 281.01 356.351 281.01 355.903 278.32C355.455 275.63 357.696 269.802 357.696 269.802Z" fill="#090814"/>
<path d="M363.522 86.4453L361.729 85.9968C361.729 85.9968 360.385 78.3736 357.247 79.2724C354.11 80.1712 346.042 81.0657 346.042 77.479C346.042 73.8924 353.663 70.7546 358.143 71.2026C362.623 71.6505 370.245 72.9959 369.797 79.7199C369.349 86.4439 366.456 92.9862 366.456 92.9862L366.221 88.9991L363.522 86.4453Z" fill="#090814"/>
<path d="M335.733 110.205L350.076 104.377L353.437 101.911L363.521 146.517L370.244 126.344L368.227 100.566L386.828 110.205L380.553 140.69L379.656 152.346L382.346 161.76C382.346 161.76 391.758 168.485 388.62 175.658C385.483 182.83 381.897 183.281 381.897 183.281C381.897 183.281 366.658 168.935 365.76 165.349C364.862 161.763 363.52 155.486 363.52 155.486C363.52 155.486 355.898 184.178 346.936 183.729C337.974 183.281 337.972 173.867 337.972 173.867L340.213 164.004L343.798 153.693L342.005 136.658L335.733 110.205Z" fill="#090814"/>
<path d="M0.133179 0.177368H312.589V196.569C312.589 197.568 312.193 198.525 311.487 199.231C310.781 199.937 309.824 200.334 308.825 200.334H3.89689C2.89869 200.334 1.94138 199.937 1.23554 199.231C0.529711 198.525 0.133179 197.568 0.133179 196.569V0.177368Z" fill="#E6E6E6"/>
<path d="M303.655 25.2823H9.06769V101.584H303.655V25.2823Z" fill="white"/>
<path d="M144.642 36.3031H82.3433V39.8799H144.642V36.3031Z" fill="#E6E6E6"/>
<path d="M178.546 49.3511H82.3433V52.9279H178.546V49.3511Z" fill="#EBEBFF"/>
<path d="M160.746 61.6439H82.3433V65.2207H160.746V61.6439Z" fill="#E6E6E6"/>
<path d="M128.114 73.8905H82.3433V77.4673H128.114V73.8905Z" fill="#E6E6E6"/>
<path d="M151.423 86.1376H82.3433V89.7144H151.423V86.1376Z" fill="#E6E6E6"/>
<path d="M61.5771 35.0316H53.9485V42.6619H61.5771V35.0316Z" fill="#E6E6E6"/>
<path d="M61.5771 47.3243H53.9485V54.9546H61.5771V47.3243Z" fill="#EBEBFF"/>
<path d="M61.5771 59.6171H53.9485V67.2474H61.5771V59.6171Z" fill="#E6E6E6"/>
<path d="M61.5771 71.9099H53.9485V79.5402H61.5771V71.9099Z" fill="#E6E6E6"/>
<path d="M61.5771 84.2035H53.9485V91.8338H61.5771V84.2035Z" fill="#E6E6E6"/>
<path d="M262.458 52.4108H237.03V77.8447H262.458V52.4108Z" fill="#E6E6E6"/>
<path d="M303.655 112.181H9.06769V188.482H303.655V112.181Z" fill="white"/>
<path d="M74.7152 131.446H67.0867V139.076H74.7152V131.446Z" fill="#E6E6E6"/>
<path d="M61.5771 131.446H53.9485V139.076H61.5771V131.446Z" fill="#EBEBFF"/>
<path d="M262.458 135.495H237.03V160.929H262.458V135.495Z" fill="#E6E6E6"/>
<path d="M3.76371 0H308.692C309.69 0 310.648 0.396623 311.354 1.10262C312.059 1.80861 312.456 2.76614 312.456 3.76457V13.2772H0V3.76457C0 2.76614 0.396532 1.80861 1.10236 1.10262C1.8082 0.396623 2.76551 0 3.76371 0Z" fill="#EBEBFF"/>
<path d="M9.86374 9.24814C11.2224 9.24814 12.3238 8.14648 12.3238 6.78752C12.3238 5.42856 11.2224 4.3269 9.86374 4.3269C8.50509 4.3269 7.40369 5.42856 7.40369 6.78752C7.40369 8.14648 8.50509 9.24814 9.86374 9.24814Z" fill="white"/>
<path d="M19.202 9.24814C20.5606 9.24814 21.6621 8.14648 21.6621 6.78752C21.6621 5.42856 20.5606 4.3269 19.202 4.3269C17.8433 4.3269 16.7419 5.42856 16.7419 6.78752C16.7419 8.14648 17.8433 9.24814 19.202 9.24814Z" fill="white"/>
<path d="M28.5412 9.24814C29.8998 9.24814 31.0012 8.14648 31.0012 6.78752C31.0012 5.42856 29.8998 4.3269 28.5412 4.3269C27.1825 4.3269 26.0811 5.42856 26.0811 6.78752C26.0811 8.14648 27.1825 9.24814 28.5412 9.24814Z" fill="white"/>
<path d="M92.1916 146.343H53.9485V149.92H92.1916V146.343Z" fill="#E6E6E6"/>
<path d="M98.7781 153.872H53.9485V157.449H98.7781V153.872Z" fill="#E6E6E6"/>
<path d="M92.1916 161.401H53.9485V164.978H92.1916V161.401Z" fill="#E6E6E6"/>
</g>
<defs>
<clipPath id="clip0_12_2446">
<rect width="394" height="282" fill="white"/>
</clipPath>
</defs>
</svg>
